<?xml version="1.0" encoding="utf-8"?>
<!-- Generator: Adobe Illustrator 24.0.1, SVG Export Plug-In . SVG Version: 6.00 Build 0)  -->
<svg version="1.1" id="Layer_1" xmlns="http://www.w3.org/2000/svg" xmlns:xlink="http://www.w3.org/1999/xlink" x="0px" y="0px"
	 width="194.7px" height="36px" viewBox="0 0 194.7 36" style="enable-background:new 0 0 194.7 36;" xml:space="preserve">
<style type="text/css">
	.st0{fill:#FFFFFF;}
</style>
<g>
	<path class="st0" d="M9.6,0.4l4.6,11.2c0.5,1.1,1.1,2.4,1.8,4c0.3,0.6,0.6,1.2,0.8,1.7h-3.6c0,0,0-0.1-0.1-0.4
		c-0.2-0.8-0.5-1.5-0.8-2.2L11.7,13c-0.1,0-0.5,0-1.1-0.1c-0.5,0-1.2,0-2.1,0H6.3c-0.8,0-1.4,0-1.8,0H3.9H3.5l-1.1,2.6l-0.4,1
		l-0.2,0.6H0l0.2-0.3l1-1.9C1.7,14,2,13,2.5,12.1L3,10.7L7.6,0.4H9.6z M4.1,11.7c0.4,0,0.8,0,1.2,0h1h2.5c1.5,0,2.3,0,2.6,0L7.8,2.8
		L4.1,11.7z"/>
	<path class="st0" d="M36.6,17.2c-1.8-1.9-3.5-4-5.3-5.9c-1.4-1.6-2.7-3-3.9-4.3c-0.7-0.7-1.2-1.2-1.6-1.5c-0.4-0.4-0.7-0.7-0.9-0.8
		l0.1,6c0,0.9,0.1,2.2,0.2,4.1c0,0.1,0,0.3,0,0.5l0.1,1.4v0.5h-1.9c0-0.5,0-0.8,0-1.1l0.1-3c0-0.4,0-1,0-1.7V5.7
		c0-1.4,0-2.7-0.1-3.9l-0.1-1.5h1.3C27,3,28.7,5,29.9,6.3l1.5,1.5c0.7,0.8,1.6,1.8,2.5,2.8c0.9,1,1.6,1.7,1.9,2
		c0.2,0.3,0.4,0.4,0.6,0.6l-0.1-6.4c-0.1-1.8-0.1-3.4-0.2-4.7C36,1.4,36,0.8,35.9,0.4h1.9c0,0.7,0,1.5,0,2.5c0,1.4-0.1,2.4-0.1,3.3
		v5.6c0,1.4,0,2.7,0.1,3.9l0.1,1.5H36.6z"/>
	<path class="st0" d="M59.2,2.4l-0.5-0.2c-0.7-0.3-1.5-0.6-2.2-0.8c-0.5-0.1-1-0.2-1.5-0.2c-1.1,0-1.9,0.2-2.8,0.6
		c-0.9,0.4-1.6,0.9-2.1,1.6c-0.7,0.7-1.1,1.5-1.4,2.3c-0.3,0.9-0.5,1.8-0.5,2.9s0.2,2,0.5,2.9c0.3,0.9,0.8,1.8,1.4,2.4
		c0.6,0.7,1.3,1.3,2,1.7c0.8,0.4,1.7,0.6,2.6,0.7c1.4,0,2.6-0.3,3.8-1c0-0.5-0.1-1.3-0.1-2.5c0-1-0.1-2.2-0.1-3.7h2.4v3.3
		c0,1,0,1.8,0.1,2.6c0,0.4,0.1,0.7,0.1,0.9c-0.5,0.3-1.1,0.6-1.7,0.9c-0.6,0.2-1.3,0.5-2,0.6c-0.9,0.1-1.8,0.2-2.7,0.2
		c-1.3,0-2.4-0.2-3.5-0.7c-1.1-0.4-2-1.1-2.9-1.8c-0.9-0.8-1.5-1.8-1.9-2.8c-0.5-1.1-0.7-2.3-0.7-3.6c0-1.9,0.5-3.7,1.5-5.1
		c0.9-1.3,2-2.1,3.6-2.8C51.9,0.3,53.2,0,54.7,0h0.5c0.8,0,1.8,0.2,3,0.4c0.5,0.1,0.9,0.2,1.2,0.3c0.3,0.1,0.5,0.2,0.6,0.2L59.2,2.4
		z"/>
	<path class="st0" d="M68.9,5.9c0-1.1,0-2.3-0.1-3.8c0-0.4,0-1-0.1-1.8c0.6,0,1,0,1.3,0c0.4,0,1.1,0,1.8,0c-0.1,1.2-0.1,2.3-0.1,3.5
		c0,0.9,0,1.6,0,2v5.9c0,0.6,0,1.4,0,2.3v1.4v0.5c2.3,0,4.1-0.1,5.3-0.2c0.7,0,1.5-0.1,2.3-0.1v1.6H68.7c0-0.8,0.1-1.4,0.1-1.7
		c0.1-1.4,0.1-2.6,0.1-3.7C68.9,12,68.9,5.9,68.9,5.9z"/>
	<path class="st0" d="M85.7,5.7c0-1.1,0-2.3-0.1-3.7l-0.1-1.7H96v1.6c-1.3-0.1-2.7-0.2-4.4-0.2c-1,0-1.9-0.1-3.1-0.1v6
		c1.2,0,1.9,0,2.5-0.1h0.7l3.4-0.1v1.7c-0.6,0-1.3,0-1.9-0.1L91.1,9c-1.1,0-1.9-0.1-2.5-0.1v7c2.4,0,4.2-0.1,5.4-0.2
		c0.6,0,1.4-0.1,2.2-0.1v1.6H85.5c0-0.8,0.1-1.4,0.1-1.7c0.1-1.4,0.1-2.6,0.1-3.7V5.7z"/>
	<path class="st0" d="M107.7,1.7c-1.2,0.1-2.3,0.1-3.5,0.2l-1.7,0.1V0.4h12.9v1.6c-0.9-0.1-1.9-0.2-3.1-0.3
		c-0.8-0.1-1.5-0.1-1.9-0.1v10.2c0,1.3,0,2.5,0.1,3.7c0,0.8,0.1,1.3,0.1,1.7h-3c0.1-1.5,0.1-2.5,0.2-3.4c0-0.9,0-1.5,0-1.9
		L107.7,1.7L107.7,1.7z"/>
	<path class="st0" d="M122.5,5.7c0-1.1,0-2.3-0.1-3.7l-0.1-1.7h10.5v1.6c-1.3-0.1-2.7-0.2-4.4-0.2c-1,0-1.9-0.1-3.1-0.1v6
		c1.2,0,1.9,0,2.5-0.1h0.7l3.4-0.1v1.7c-0.6,0-1.3,0-1.9-0.1L127.8,9c-1.1,0-1.9-0.1-2.5-0.1v7c2.4,0,4.2-0.1,5.4-0.2
		c0.6,0,1.4-0.1,2.2-0.1v1.6h-10.5c0-0.8,0.1-1.4,0.1-1.7c0.1-1.4,0.1-2.6,0.1-3.7L122.5,5.7L122.5,5.7z"/>
	<path class="st0" d="M155.2,17.1c-0.1,0-0.3,0.1-0.5,0.1c-0.2,0.1-0.4,0.1-0.7,0.1c-0.1,0-0.2,0-0.3,0c-0.2,0-0.4,0-0.7-0.1
		c-0.5-0.2-0.9-0.4-1.4-0.8c-0.5-0.4-0.9-0.9-1.3-1.6c-0.4-0.6-0.8-1.2-1.1-1.8l-1.1-1.8c-0.3-0.5-0.7-0.9-1.1-1.2
		c-0.4-0.2-0.9-0.4-1.5-0.5c-0.5,0-1.2,0-1.8,0h-1v2.2c0,1.3,0,2.4,0.1,3.7c0,0.7,0.1,1.3,0.1,1.7H140c0,0,0-0.2,0.1-0.6
		c0.1-1,0.1-2.1,0.1-3.4c0-1,0-1.7,0-2.1V5.9c0-1.1,0-2.3-0.1-3.8l0-1.8c1.3,0,2.4,0,3.5-0.1c1,0,1.8-0.1,2.5-0.1
		c2.2,0,4,0.5,5.1,1.4c1,0.9,1.5,1.9,1.5,3.5c0,1.1-0.4,1.9-1.2,2.6c-0.7,0.7-1.8,1.2-3,1.5c0.6,0.1,1.2,0.3,1.7,0.6
		c0.6,0.4,1.1,1,1.5,1.8c0.6,1.3,1.1,2.2,1.6,3c0.4,0.7,0.8,1.2,1.2,1.6c0.4,0.4,0.7,0.7,1,0.7L155.2,17.1z M144.5,1.6
		c-0.6,0.1-1.1,0.1-1.5,0.1v6.9c0.3,0,0.7,0,1.1,0c0.6,0,1.1,0,1.6-0.1c1.3-0.1,2.2-0.4,2.9-0.9c1-0.6,1.4-1.5,1.4-2.5
		c0-1.3-0.4-2.1-1.2-2.7s-1.8-0.9-3-0.9C145.6,1.5,145.1,1.5,144.5,1.6z"/>
	<path class="st0" d="M177.2,17.1c-0.1,0-0.3,0.1-0.5,0.1c-0.2,0.1-0.4,0.1-0.7,0.1c-0.1,0-0.2,0-0.3,0c-0.2,0-0.4,0-0.7-0.1
		c-0.5-0.2-0.9-0.4-1.4-0.8c-0.4-0.4-0.9-0.9-1.3-1.6c-0.4-0.6-0.8-1.2-1.1-1.8l-1.1-1.8c-0.3-0.5-0.7-0.9-1.1-1.2
		c-0.4-0.2-0.9-0.4-1.5-0.5c-0.5,0-1.2,0-1.8,0h-1v2.2c0,1.3,0,2.4,0.1,3.7c0,0.7,0.1,1.3,0.1,1.7H162c0,0,0-0.2,0-0.6
		c0.1-1,0.1-2.1,0.1-3.4c0-1,0-1.7,0-2.1V5.9c0-1.1,0-2.3-0.1-3.8l-0.1-1.8c1.3,0,2.4,0,3.5-0.1c1,0,1.8-0.1,2.5-0.1
		c2.2,0,4,0.5,5.1,1.4c1,0.9,1.5,1.9,1.5,3.5c0,1.1-0.4,1.9-1.2,2.6c-0.7,0.7-1.8,1.2-3,1.5c0.6,0.1,1.2,0.3,1.7,0.6
		c0.6,0.4,1.1,1,1.5,1.8c0.6,1.3,1.1,2.2,1.6,3c0.4,0.7,0.8,1.2,1.2,1.6c0.4,0.4,0.7,0.7,1,0.7L177.2,17.1z M166.5,1.6
		c-0.6,0.1-1.1,0.1-1.5,0.1v6.9c0.3,0,0.7,0,1.1,0c0.6,0,1.1,0,1.6-0.1c1.3-0.1,2.2-0.4,2.9-0.9c1-0.6,1.4-1.5,1.4-2.5
		c0-1.3-0.4-2.1-1.2-2.7s-1.8-0.9-3-0.9C167.4,1.5,167.1,1.5,166.5,1.6z"/>
	<path class="st0" d="M184.3,5.7c0-1.1,0-2.3-0.1-3.7l-0.1-1.7h10.5v1.6c-1.3-0.1-2.7-0.2-4.4-0.2c-1,0-1.9-0.1-3.1-0.1v6
		c1.2,0,1.9,0,2.5-0.1h0.7l3.4-0.1v1.7c-0.6,0-1.3,0-1.9-0.1L189.6,9c-1.1,0-1.9-0.1-2.5-0.1v7c2.4,0,4.2-0.1,5.4-0.2
		c0.6,0,1.4-0.1,2.2-0.1v1.6h-10.5c0-0.8,0.1-1.4,0.1-1.7c0.1-1.4,0.1-2.6,0.1-3.7L184.3,5.7L184.3,5.7z"/>
	<path class="st0" d="M44.3,33.7c0,0.5,0,1,0,1.5c0,0.3,0,0.5,0,0.7h-0.8v-3.2h-0.2c-0.1,0-0.2,0-0.3,0h-0.8h-0.9
		c-0.3,0-0.6,0-1.1,0H40h-0.5h-0.2v1.2c0,0.5,0,1,0,1.5c0,0.3,0,0.5,0,0.7h-0.9c0-0.1,0-0.3,0-0.7c0-0.5,0-1,0-1.5v-2.4
		c0-0.4,0-0.8,0-1.5c0-0.1,0-0.4,0-0.7h0.8v2.9h0.1h0.1c0.4,0,0.7,0,1.1,0c0.2,0,0.4,0,0.7,0h0.7c0.2,0,0.5,0,0.9,0
		c0.2,0,0.5,0,0.7,0c0.1,0,0.1,0,0.2,0v-0.9c0-0.4,0-0.8,0-1.5c0-0.1,0-0.3,0-0.7h0.9c0,0.4,0,0.8,0,1.3c0,0.3,0,0.6,0,0.8v2.5H44.3
		z"/>
	<path class="st0" d="M51.2,29.3c0.4,0.2,0.8,0.4,1.1,0.7c0.3,0.3,0.6,0.7,0.8,1.1c0.2,0.4,0.3,0.9,0.3,1.4c0,0.6-0.1,1-0.3,1.5
		c-0.2,0.4-0.5,0.8-0.8,1.1c-0.3,0.3-0.7,0.5-1.1,0.7c-0.4,0.2-0.9,0.2-1.4,0.2c-0.5,0-1-0.1-1.4-0.2c-0.4-0.2-0.8-0.4-1.1-0.7
		c-0.3-0.3-0.6-0.7-0.8-1.1c-0.2-0.4-0.3-0.9-0.3-1.4c0-0.7,0.2-1.3,0.5-1.8c0.3-0.5,0.8-0.9,1.3-1.2c0.5-0.3,1.1-0.4,1.8-0.4
		C50.2,29.1,50.7,29.2,51.2,29.3z M49.1,29.6c-0.2,0.1-0.4,0.1-0.6,0.2c-0.5,0.2-0.8,0.6-1.1,1c-0.3,0.5-0.5,1.1-0.5,1.8
		c0,0.4,0.1,0.8,0.2,1.2c0.1,0.4,0.3,0.7,0.6,1c0.2,0.3,0.5,0.5,0.9,0.7c0.3,0.2,0.7,0.2,1.2,0.2c0.2,0,0.4,0,0.6-0.1
		c0.2-0.1,0.4-0.1,0.6-0.2c0.5-0.2,0.8-0.6,1.1-1c0.3-0.5,0.5-1.1,0.5-1.8c0-0.4-0.1-0.8-0.2-1.2c-0.1-0.4-0.3-0.7-0.6-1
		c-0.3-0.3-0.5-0.5-0.9-0.7c-0.3-0.2-0.7-0.2-1.2-0.2C49.5,29.5,49.3,29.5,49.1,29.6z"/>
	<path class="st0" d="M56.3,29.6c-0.4,0-0.9,0-1.4,0.1c-0.3,0-0.5,0-0.7,0v-0.5h4.9v0.5c-0.3,0-0.7-0.1-1.3-0.1c-0.3,0-0.5,0-0.8,0
		v4.1c0,0.5,0,1,0,1.5v0.7h-0.9c0-0.4,0-0.8,0-1.3c0-0.3,0-0.6,0-0.8L56.3,29.6L56.3,29.6z"/>
	<path class="st0" d="M61,31.3c0-0.4,0-0.8,0-1.5c0-0.1,0-0.3,0-0.7h3.8v0.5c-0.5,0-1.2-0.1-1.8-0.1h-1.2v2.5c0.8,0,1.4,0,1.8,0
		c0.2,0,0.5,0,0.8,0v0.5c-0.3,0-0.6,0-0.7,0h-0.1h-0.9h-1v2.8c0.7,0,1.4,0,2-0.1h0.9v0.5h-3.8c0-0.4,0-0.8,0-1.3c0-0.3,0-0.6,0-0.8
		L61,31.3L61,31.3z"/>
	<path class="st0" d="M66.8,31.3c0-0.4,0-0.9,0-1.5v-0.7c0.1,0,0.3,0,0.3,0c0.1,0,0.3,0,0.6,0c0,0.4,0,0.8,0,1.4c0,0.3,0,0.6,0,0.8
		v2.4c0,0.3,0,0.6,0,1v0.6v0.2c0.6,0,1.3,0,2-0.1h1v0.5h-3.8c0-0.4,0-0.8,0-1.3c0-0.3,0-0.6,0-0.8L66.8,31.3L66.8,31.3z"/>
	<path class="st0" d="M76,34.6c0.3,0.3,0.7,0.5,1.2,0.7c0.3,0.1,0.7,0.2,1,0.2c0.3,0,0.6,0,0.9-0.1c0.3-0.1,0.5-0.2,0.6-0.3
		c0.2-0.1,0.3-0.3,0.4-0.4c0.1-0.2,0.1-0.3,0.1-0.5c0-0.4-0.2-0.7-0.6-1c-0.2-0.1-0.4-0.2-0.6-0.4c-0.2-0.1-0.5-0.2-0.8-0.4
		c-0.3-0.1-0.6-0.3-0.8-0.4c-0.2-0.1-0.4-0.2-0.6-0.4c-0.2-0.2-0.4-0.3-0.5-0.5s-0.2-0.4-0.2-0.6c0-0.5,0.2-0.9,0.5-1.1
		c0.4-0.3,1-0.4,1.7-0.4c0.3,0,0.6,0,0.9,0.1c0.4,0.1,0.8,0.2,1.1,0.4L80,30.2c-0.2-0.2-0.5-0.3-0.9-0.4c-0.2-0.1-0.4-0.1-0.5-0.1
		c-0.2,0-0.3-0.1-0.5-0.1c-0.4,0-0.8,0.1-1,0.2c-0.2,0.1-0.3,0.4-0.3,0.8c0,0.1,0.1,0.3,0.2,0.4s0.3,0.3,0.5,0.4
		c0.2,0.1,0.4,0.2,0.6,0.3c0.3,0.1,0.6,0.3,0.8,0.4s0.4,0.2,0.7,0.3c0.5,0.3,0.9,0.6,1.1,1c0.1,0.2,0.2,0.4,0.2,0.7
		c0,0.3-0.1,0.6-0.2,0.8s-0.3,0.5-0.6,0.6c-0.2,0.2-0.5,0.3-0.9,0.4c-0.3,0.1-0.7,0.1-1.1,0.1s-0.8-0.1-1.1-0.2
		c-0.4-0.1-0.9-0.3-1.3-0.7L76,34.6z"/>
	<path class="st0" d="M84.2,29.6c-0.4,0-0.9,0-1.4,0.1c-0.3,0-0.5,0-0.7,0v-0.5H87v0.5c-0.3,0-0.7-0.1-1.3-0.1c-0.3,0-0.5,0-0.8,0
		v4.1c0,0.5,0,1,0,1.5v0.7h-0.9c0-0.4,0-0.8,0-1.3c0-0.3,0-0.6,0-0.8L84.2,29.6L84.2,29.6z"/>
	<path class="st0" d="M93.3,33.8c0,0.6,0,1.1,0,1.4c0,0.2,0,0.4,0,0.6h-0.8c0-0.2,0-0.3,0-0.5s0-0.3,0-0.4v-0.1c0-0.4,0-0.8,0-1.3
		v-2.2c0-0.2,0-0.4,0-0.8v-1.3h0.6c0.3,0,0.5,0,0.8,0c0.2,0,0.4,0,0.6,0c0.6,0,1.1,0.1,1.6,0.3c0.3,0.2,0.6,0.4,0.8,0.8
		c0.1,0.3,0.2,0.6,0.2,0.9c0,0.4-0.1,0.7-0.3,0.9c-0.2,0.3-0.4,0.5-0.8,0.6C95.4,32.8,94.8,33,94,33c-0.2,0-0.4,0-0.6,0L93.3,33.8
		L93.3,33.8z M93.9,29.6c-0.2,0-0.4,0-0.6,0v2.9c0.2,0,0.4,0,0.5,0c0.2,0,0.4,0,0.6,0c0.5-0.1,0.9-0.2,1.2-0.4
		c0.4-0.3,0.5-0.6,0.5-1.1c0-0.5-0.2-0.9-0.5-1.2c-0.3-0.3-0.7-0.4-1.3-0.4C94.3,29.6,94.1,29.6,93.9,29.6z"/>
	<path class="st0" d="M98.8,31.3c0-0.4,0-0.8,0-1.5c0-0.1,0-0.3,0-0.7h3.8v0.5c-0.5,0-1.2-0.1-1.8-0.1h-1.2v2.5c0.8,0,1.4,0,1.8,0
		c0.2,0,0.5,0,0.8,0v0.5c-0.3,0-0.6,0-0.7,0h-0.1h-0.9h-1v2.8c0.7,0,1.4,0,2-0.1h0.9v0.5h-3.8c0-0.4,0-0.8,0-1.3c0-0.3,0-0.6,0-0.8
		L98.8,31.3L98.8,31.3z"/>
	<path class="st0" d="M106.2,29.6c-0.4,0-0.9,0-1.4,0.1c-0.3,0-0.5,0-0.7,0v-0.5h4.9v0.5c-0.3,0-0.7-0.1-1.3-0.1c-0.3,0-0.5,0-0.8,0
		v4.1c0,0.5,0,1,0,1.5v0.7h-0.9c0-0.4,0-0.8,0-1.3c0-0.3,0-0.6,0-0.8L106.2,29.6L106.2,29.6z"/>
	<path class="st0" d="M110.9,31.3c0-0.4,0-0.8,0-1.5c0-0.1,0-0.3,0-0.7h3.8v0.5c-0.5,0-1.2-0.1-1.8-0.1h-1.2v2.5c0.8,0,1.4,0,1.8,0
		c0.2,0,0.5,0,0.8,0v0.5c-0.3,0-0.6,0-0.7,0h-0.1h-0.9h-1v2.8c0.7,0,1.4,0,2-0.1h0.9v0.5h-3.7c0-0.4,0-0.8,0-1.3c0-0.3,0-0.6,0-0.8
		V31.3z"/>
	<path class="st0" d="M122.2,35.8L122.2,35.8H122c-0.1,0-0.3,0-0.4-0.1c-0.2-0.1-0.4-0.3-0.7-0.6c-0.2-0.2-0.4-0.5-0.6-0.9l-0.3-0.5
		c-0.1-0.2-0.2-0.3-0.3-0.4c-0.1-0.2-0.3-0.3-0.5-0.4c-0.1,0-0.2-0.1-0.2-0.1c-0.1,0-0.2,0-0.3-0.1c-0.2,0-0.5,0-0.7,0
		c-0.1,0-0.3,0-0.5,0v0.9c0,0.5,0,1,0,1.5c0,0.3,0,0.5,0,0.7h-0.9c0,0,0-0.1,0-0.2c0-0.3,0-0.8,0-1.4c0-0.2,0-0.5,0-0.9v-1.9
		c0-0.3,0-0.9,0-1.5c0-0.1,0-0.4,0-0.7c0.5,0,0.9,0,1.3,0h0.5c0.2,0,0.3,0,0.4,0c0.6,0,1.2,0.1,1.5,0.3c0.4,0.2,0.6,0.4,0.8,0.7
		c0.1,0.3,0.2,0.6,0.2,0.9c0,0.4-0.2,0.8-0.5,1.1c-0.3,0.3-0.7,0.5-1.2,0.6c0.2,0,0.4,0.1,0.6,0.2c0.2,0.2,0.4,0.4,0.6,0.7
		c0.2,0.5,0.5,0.9,0.7,1.2c0.2,0.3,0.3,0.5,0.5,0.6c0.1,0.2,0.3,0.2,0.4,0.3L122.2,35.8z M118.1,29.6c-0.3,0-0.5,0-0.7,0v2.8
		c0.2,0,0.4,0,0.6,0c0.2,0,0.4,0,0.6,0c0.5-0.1,1-0.2,1.3-0.4c0.4-0.2,0.6-0.6,0.6-1.1c0-0.5-0.2-0.9-0.5-1.2
		c-0.3-0.2-0.7-0.4-1.3-0.4C118.7,29.6,118.5,29.6,118.1,29.6z"/>
	<path class="st0" d="M123.7,34.6c0.3,0.3,0.7,0.5,1.2,0.7c0.3,0.1,0.7,0.2,1,0.2c0.3,0,0.6,0,0.9-0.1c0.3-0.1,0.5-0.2,0.6-0.3
		c0.2-0.1,0.3-0.3,0.4-0.4c0.1-0.2,0.1-0.3,0.1-0.5c0-0.4-0.2-0.7-0.6-1c-0.2-0.1-0.4-0.2-0.6-0.4c-0.2-0.1-0.5-0.2-0.8-0.4
		c-0.3-0.1-0.6-0.3-0.8-0.4c-0.2-0.1-0.4-0.2-0.6-0.4c-0.2-0.2-0.4-0.3-0.5-0.5c-0.1-0.2-0.2-0.4-0.2-0.6c0-0.5,0.2-0.9,0.5-1.1
		c0.4-0.3,1-0.4,1.7-0.4c0.3,0,0.6,0,1,0.1s0.8,0.2,1.1,0.4l-0.2,0.5c-0.2-0.2-0.5-0.3-0.9-0.4c-0.2-0.1-0.4-0.1-0.5-0.1
		c-0.2,0-0.3-0.1-0.5-0.1c-0.4,0-0.8,0.1-1,0.2c-0.3,0.2-0.5,0.5-0.5,0.8c0,0.1,0.1,0.3,0.2,0.4c0.1,0.1,0.3,0.3,0.5,0.4
		c0.2,0.1,0.4,0.2,0.6,0.3c0.3,0.1,0.6,0.3,0.8,0.4c0.2,0.1,0.4,0.2,0.7,0.3c0.5,0.3,0.9,0.6,1.1,1c0.1,0.2,0.2,0.4,0.2,0.7
		c0,0.3-0.1,0.6-0.2,0.8c-0.1,0.2-0.3,0.5-0.6,0.6c-0.2,0.2-0.5,0.3-0.9,0.4c-0.3,0.1-0.7,0.1-1.1,0.1c-0.4,0-0.8-0.1-1.1-0.2
		c-0.4-0.1-0.9-0.3-1.3-0.7L123.7,34.6z"/>
	<path class="st0" d="M130.4,31.2c0-0.4,0-0.8,0-1.5c0-0.1,0-0.4,0-0.7h0.5c0.2,0,0.4,0,0.6,0c0.2,0,0.4,0,0.5,0c0.2,0,0.4,0,0.6,0
		c0.2,0,0.3,0,0.5,0s0.4,0.1,0.6,0.2s0.3,0.2,0.5,0.3c0.1,0.1,0.2,0.3,0.3,0.4c0.1,0.2,0.1,0.3,0.1,0.5s0,0.4-0.1,0.6
		s-0.2,0.3-0.3,0.5c-0.2,0.1-0.3,0.2-0.6,0.3c-0.2,0.1-0.5,0.1-0.7,0.2c0.6,0.1,1.1,0.2,1.5,0.5c0.4,0.3,0.6,0.7,0.7,1.3
		c0,0.1,0,0.3-0.1,0.4c0,0.1-0.1,0.3-0.2,0.4c-0.2,0.3-0.5,0.6-0.8,0.8c-0.4,0.2-0.9,0.3-1.5,0.3c-0.1,0-0.2,0-0.3,0s-0.2,0-0.2,0
		h-0.2c-0.3,0-0.5,0-0.6,0h-0.7c0-0.1,0-0.3,0-0.7c0-0.5,0-1,0-1.5L130.4,31.2L130.4,31.2z M133.4,32.9c-0.3-0.2-0.6-0.3-1.1-0.4
		c-0.3,0-0.6-0.1-1-0.1h-0.3v1.1v0.6c0,0.1,0,0.3,0,0.6V35v0.4c0.2,0,0.4,0,0.5,0c0.2,0,0.3,0,0.4,0c0.3,0,0.6,0,0.9-0.1
		c0.5-0.1,0.8-0.4,1-0.8c0.1-0.2,0.1-0.4,0.1-0.7C133.9,33.5,133.8,33.1,133.4,32.9z M131.1,29.6V32c0.1,0,0.1,0,0.2,0
		c0,0,0.1,0,0.2,0h0.1h0.1c0.1,0,0.1,0,0.1,0h0.1c0.2,0,0.4,0,0.7-0.1c0.3-0.1,0.5-0.2,0.7-0.4s0.3-0.5,0.3-0.8
		c0-0.4-0.2-0.7-0.5-0.9c-0.1-0.1-0.3-0.1-0.4-0.2c-0.2,0-0.3-0.1-0.5-0.1c-0.1,0-0.2,0-0.2,0h-0.5c-0.1,0-0.2,0-0.2,0
		S131.1,29.6,131.1,29.6z"/>
	<path class="st0" d="M137.4,32.6c0,1,0.2,1.8,0.6,2.2c0.2,0.2,0.4,0.4,0.7,0.5c0.3,0.1,0.6,0.2,1,0.2c0.7,0,1.3-0.2,1.7-0.6
		c0.5-0.5,0.7-1.3,0.7-2.2v-1.3c0-0.4,0-0.9,0-1.5c0-0.3,0-0.6,0-0.7h0.6c0,0.4,0,0.8,0,1.4c0,0.3,0,0.6,0,0.8v1.3
		c0,1.2-0.3,1.9-0.8,2.5c-0.5,0.5-1.3,0.8-2.1,0.8c-1,0-1.8-0.3-2.2-0.9c-0.4-0.5-0.6-1.3-0.6-2.3v-1.4c0-0.4,0-1,0-1.5v-0.7h0.9
		c0,0.4,0,0.9,0,1.4c0,0.4,0,0.6,0,0.8v1.2H137.4z"/>
	<path class="st0" d="M150.4,35.8L150.4,35.8h-0.2c-0.1,0-0.3,0-0.4-0.1c-0.2-0.1-0.4-0.3-0.7-0.6c-0.2-0.2-0.4-0.5-0.6-0.9
		l-0.3-0.5c-0.1-0.2-0.2-0.3-0.3-0.4c-0.1-0.2-0.3-0.3-0.5-0.4c-0.1,0-0.2-0.1-0.2-0.1c-0.1,0-0.2,0-0.3-0.1c-0.2,0-0.5,0-0.7,0
		c-0.1,0-0.3,0-0.5,0v0.9c0,0.5,0,1,0,1.5c0,0.3,0,0.5,0,0.7H145c0,0,0-0.1,0-0.2c0-0.3,0-0.8,0-1.4c0-0.2,0-0.5,0-0.9v-1.9
		c0-0.3,0-0.9,0-1.5c0-0.1,0-0.4,0-0.7c0.5,0,0.9,0,1.3,0h0.5c0.2,0,0.3,0,0.4,0c0.6,0,1.2,0.1,1.5,0.3c0.4,0.2,0.6,0.4,0.8,0.7
		c0.1,0.3,0.2,0.6,0.2,0.9c0,0.4-0.2,0.8-0.5,1.1c-0.3,0.3-0.7,0.5-1.2,0.6c0.2,0,0.4,0.1,0.6,0.2c0.2,0.2,0.4,0.4,0.6,0.7
		c0.2,0.5,0.5,0.9,0.7,1.2c0.2,0.3,0.3,0.5,0.5,0.6c0.1,0.2,0.3,0.2,0.4,0.3L150.4,35.8z M146.3,29.6c-0.3,0-0.5,0-0.7,0v2.8
		c0.2,0,0.4,0,0.6,0c0.2,0,0.4,0,0.6,0c0.5-0.1,1-0.2,1.3-0.4c0.4-0.2,0.6-0.6,0.6-1.1c0-0.5-0.2-0.9-0.5-1.2
		c-0.3-0.2-0.7-0.4-1.3-0.4C146.8,29.6,146.6,29.6,146.3,29.6z"/>
	<path class="st0" d="M156.7,29.9c0,0-0.1-0.1-0.2-0.1c-0.3-0.1-0.6-0.2-0.9-0.3c-0.2,0-0.4,0-0.6,0c-0.4,0-0.8,0.1-1.2,0.2
		c-0.4,0.1-0.7,0.4-0.9,0.6c-0.3,0.3-0.4,0.6-0.6,1c-0.1,0.4-0.2,0.8-0.2,1.2s0.1,0.8,0.2,1.2c0.1,0.4,0.3,0.7,0.6,1
		c0.3,0.3,0.5,0.5,0.9,0.7c0.3,0.2,0.7,0.3,1.1,0.3c0.6,0,1.2-0.2,1.7-0.5c0,0,0-0.3,0-0.8V34c0-0.5,0-1,0-1.5h0.7v1.3
		c0,0.4,0,0.8,0,1.1c0,0.2,0,0.3,0,0.3c-0.2,0.1-0.4,0.2-0.6,0.3c-0.2,0.1-0.5,0.2-0.8,0.3c-0.3,0.1-0.6,0.1-1,0.1
		c-0.3,0-0.6,0-0.9-0.1c-0.3-0.1-0.6-0.2-0.8-0.3c-0.5-0.3-1-0.7-1.3-1.3c-0.3-0.6-0.5-1.2-0.5-1.8c0-0.7,0.2-1.4,0.5-1.8
		c0.3-0.5,0.8-0.9,1.4-1.1c0.5-0.2,1.1-0.3,1.7-0.3c0.3,0,0.8,0,1.3,0.1c0.2,0,0.3,0.1,0.5,0.1c0.1,0,0.2,0.1,0.2,0.1L156.7,29.9z"
		/>
</g>
</svg>
